<svg width="270" height="272" viewBox="0 0 270 272" fill="none" xmlns="http://www.w3.org/2000/svg">
<g clip-path="url(#clip0_1304_5095)">
<rect width="270" height="272" rx="20" fill="#FFF5F7"/>
<path d="M86 84L88.1607 89.8393L94 92L88.1607 94.1607L86 100L83.8393 94.1607L78 92L83.8393 89.8393L86 84Z" fill="#FF0000" fill-opacity="0.12"/>
<path d="M49 -6L51.1607 -0.160726L57 2L51.1607 4.16073L49 10L46.8393 4.16073L41 2L46.8393 -0.160726L49 -6Z" fill="#FF0000" fill-opacity="0.12"/>
<path d="M215 116L216.891 121.109L222 123L216.891 124.891L215 130L213.109 124.891L208 123L213.109 121.109L215 116Z" fill="#FF0000" fill-opacity="0.12"/>
<path d="M218 247L219.891 252.109L225 254L219.891 255.891L218 261L216.109 255.891L211 254L216.109 252.109L218 247Z" fill="#FF0000" fill-opacity="0.12"/>
<path d="M139 30L140.891 35.1094L146 37L140.891 38.8906L139 44L137.109 38.8906L132 37L137.109 35.1094L139 30Z" fill="#FF0000" fill-opacity="0.12"/>
<path d="M58.5 134L59.4453 136.555L62 137.5L59.4453 138.445L58.5 141L57.5547 138.445L55 137.5L57.5547 136.555L58.5 134Z" fill="#FF0000" fill-opacity="0.12"/>
<path d="M61.5 265L62.4453 267.555L65 268.5L62.4453 269.445L61.5 272L60.5547 269.445L58 268.5L60.5547 267.555L61.5 265Z" fill="#FF0000" fill-opacity="0.12"/>
<path d="M37 41L38.6205 45.3795L43 47L38.6205 48.6205L37 53L35.3795 48.6205L31 47L35.3795 45.3795L37 41Z" fill="#FF0000" fill-opacity="0.12"/>
<path d="M40 172L41.6205 176.379L46 178L41.6205 179.621L40 184L38.3795 179.621L34 178L38.3795 176.379L40 172Z" fill="#FF0000" fill-opacity="0.12"/>
<g clip-path="url(#clip1_1304_5095)">
<circle cx="295" cy="286" r="60" fill="url(#paint0_linear_1304_5095)"/>
<circle cx="-22" cy="-4" r="60" fill="url(#paint1_linear_1304_5095)"/>
</g>
</g>
<defs>
<linearGradient id="paint0_linear_1304_5095" x1="235" y1="226" x2="355" y2="346" gradientUnits="userSpaceOnUse">
<stop stop-color="#FF385C"/>
<stop offset="1" stop-color="#FA817C"/>
</linearGradient>
<linearGradient id="paint1_linear_1304_5095" x1="-82" y1="-64" x2="38" y2="56" gradientUnits="userSpaceOnUse">
<stop stop-color="#FF385C"/>
<stop offset="1" stop-color="#D8304F"/>
</linearGradient>
<clipPath id="clip0_1304_5095">
<rect width="270" height="272" rx="20" fill="white"/>
</clipPath>
<clipPath id="clip1_1304_5095">
<rect width="340" height="272" rx="20" fill="white"/>
</clipPath>
</defs>
</svg>
